<svg version="1.2" xmlns="http://www.w3.org/2000/svg" viewBox="0 0 133 131" width="133" height="131">
	<style>
		.s0 { opacity: 0;fill: #000000 } 
		.s1 { fill: #8a5d40 } 
		.s2 { fill: #2d2c2b } 
	</style>
	<g id="Layer_1-2">
		<path class="s0" d="m245.24 232.8v2.16h-480.24v-234.96h480.24v232.56c-0.87-1.06-1.14-2.69-1.37-4.03-2.43-13.87-0.06-29.32-1.03-43.32-1.73-25.01-32.21-24.23-41.3-3.64l-1.88 4.96v-45.07h-14.63c0.73 1.76 1.13 3.54 1.41 5.43 0.43 2.93 0.66 6.57 0.77 9.54 0.72 20.39-0.57 41.2 0 61.64-0.57 4.93-0.24 10.09-2.17 14.74h16.79c-0.73-1.76-1.13-3.54-1.41-5.43-1.3-8.86-1.32-23.07-0.76-32.1 0.63-10.22 7.04-23.05 18.59-23.62 8.32-0.41 11.65 4.99 12.14 12.59 0.73 11.47-0.57 23.71 0 35.26-0.43 4.48-0.47 9-1.93 13.3h16.79zm-174.39-232.56h-8.64c1.46 7.91 1.13 16.03 0.24 23.98h8.04c0.15 0 0.3-0.31 0.31-0.54 0.04-1.12-0.57-3.31-0.67-4.62-0.24-3.19-0.25-6.4-0.25-9.6zm-12.96 0.48c-4.24 0.52-8.4 1.56-12.44 2.91 0.01 5.77 0 11.54-0.99 17.23l13.43 2.88c1.2-7.64 1.07-15.36 0-23.02zm29.96 2.9c-3.8-0.99-8-2.54-11.92-2.85-0.27-0.02-0.46-0.11-0.66 0.18-1.18 7.46-1.08 15.08-0.11 22.55 4.57-0.07 9.02-1.53 13.41-2.66-0.62-5.71-1.24-11.47-0.72-17.22zm-46.99 1.9c-0.48-0.53-10.12 5.3-11.11 6.04-0.34 0.26-1.7 1.11-1.6 1.51 0.17 0.68 10.48 5.78 11.99 6.12 0.9-4.5 0.73-9.09 0.72-13.67zm64.29 7.66c0.26-0.37-1.68-1.59-2.08-1.87-1.02-0.72-10.4-6.33-10.87-5.8q-0.19 6.87 0.72 13.66c0 0 12.23-6 12.23-5.99zm-66 10.34c-5.32-1.76-10.11-4.73-14.97-7.45-1.42 0.55-8.87 8.58-8.74 9.2 5.89 4.86 12.59 8.77 19.76 11.43 0.86-1.48 4.57-12.46 3.95-13.18zm69.53-7.43c-2.21 1.31-4.37 2.74-6.65 3.93-1.15 0.6-7.82 3.33-8.05 3.71-0.32 0.51 1 4.8 1.27 5.7 0.73 2.43 1.61 4.86 2.7 7.15 0.67 0.42 8.57-3.74 9.76-4.41 2.05-1.17 4.24-2.55 6.15-3.92 0.58-0.41 3.49-2.49 3.66-2.84 0.17-0.35 0-0.52-0.16-0.8-0.99-1.71-5.54-6.4-7.16-7.71-0.4-0.33-0.99-0.88-1.52-0.81zm-51.75 11.96l-13.43-2.88c-0.75 4.56-2.44 8.9-4.08 13.19 1.99 0.39 12.27 3.32 13.44 2.53 0.56-0.38 4.54-12.36 4.07-12.83zm32.63-2.88c-4.38 1.32-8.87 2.36-13.43 2.88 0.9 4.44 2.4 8.73 4.12 12.9 4.56-0.13 8.98-1.56 13.39-2.6l-4.08-13.19zm-23.27 35.01l0.68-0.4 9.35-16.32c-1.71-4.77-3.72-9.48-4.56-14.52l-0.55-0.41-9.69 0.03c-1.07 5.08-2.73 10-4.77 14.77l9.55 16.86zm-36.97-12.26c0.24-0.14 2.48-4.16 2.79-4.76 0.21-0.41 1.2-2.1 0.97-2.41q-2.07-0.82-4.08-1.75-2.02-0.93-3.98-1.98-1.97-1.04-3.87-2.19-1.9-1.15-3.73-2.41c-1.29-0.88-3.03-2.53-4.25-3.19-0.24-0.13-0.3-0.32-0.62-0.11-0.39 0.25-4.32 6.99-4.07 7.32 5.56 1.96 10.87 4.85 15.77 8.1 1.21 0.8 3.33 2.78 4.39 3.28 0.21 0.1 0.46 0.23 0.69 0.1zm91.39-18.88c-0.2-0.12-0.49-0.03-0.69 0.1q-2.26 1.85-4.67 3.51-2.41 1.66-4.94 3.12-2.53 1.46-5.17 2.71-2.65 1.26-5.38 2.29c-0.24 0.33 3.72 6.89 4.08 7.09 0.27 0.14 0.4 0.06 0.61-0.12 6.07-4.71 12.77-8.68 20.01-11.3 0.24-0.34-3.5-7.18-3.86-7.39zm-113.99 11.5c-0.54 0.15-1.89 4.49-2.14 5.31-0.31 1-1.78 6.13-1.59 6.74l14.44 9.25c2.13-2.02 4.27-4.08 6.16-6.33 0.63-0.75 2.9-3.14 2.53-3.94-0.39-0.85-8.21-5.76-9.56-6.52-3.12-1.77-6.42-3.36-9.84-4.49zm120.01-0.01c-0.53-0.38-8.13 3.41-9.26 4.03-1.41 0.76-10.35 6.27-10.62 7.14-0.11 0.35 0.1 0.46 0.22 0.69 0.47 0.89 2.25 2.84 3 3.71 1.74 2.02 3.74 4.04 5.79 5.73 4.53-3.26 9.04-6.65 14.2-8.89 0.66-1.06-2.7-10.69-3.33-12.41zm-64.28 22.05c-2.89-5.78-6.42-11.26-9.59-16.91-5.08-0.71-10.13-1.64-15.01-3.23l-0.56 0.38-4.56 8.31c3.58 3.65 7.24 7.22 10.17 11.44 0 0 19.55 0 19.55 0.01zm8.16 0h19.55c1.82-2.25 3.57-4.58 5.51-6.72 0.67-0.74 4.54-4.29 4.65-4.72 0.19-0.72-4.39-7.32-4.68-8.72-5.05 1.42-10.16 2.65-15.4 3.18zm-40.99-7.64c-2.34 3.77-5.9 6.58-8.68 9.92l9 9.96c3.39-2.85 6.51-6.28 9-9.96 0-0.44-4.48-5.63-5.16-6.35-0.73-0.78-2.6-2.87-3.35-3.36-0.25-0.16-0.52-0.36-0.82-0.19zm73.85 20.1c0.12-0.53 0.54-1 0.87-1.41 1.89-2.36 4.27-5.14 6.44-7.22 0.38-0.36 1.64-1.03 1.55-1.52l-8.98-9.98c-0.35-0.09-4.71 4.4-5.27 5.03-0.73 0.81-3.81 4.33-3.72 5.15 0.06 0.55 4.43 5.58 5.16 6.37 0.78 0.83 2.54 2.8 3.36 3.36 0.2 0.14 0.25 0.33 0.6 0.23zm-89.99-10.51c-1.38-0.92-10.21-7.17-11.11-6.98-0.17 0.04-0.37 0.39-0.37 0.6-0.13 3.43-0.42 6.88-0.25 10.32 0.03 0.51 0.26 3.33 0.36 3.48 0.24 0.36 0.54 0.21 0.85 0.13 0.69-0.18 3.16-1.8 3.96-2.29 1.5-0.92 5.16-3.17 6.24-4.32 0.27-0.29 0.49-0.5 0.32-0.94zm117.58-6.99c-0.24-0.27-4.83 2.51-5.4 2.87-1.63 1.02-4.12 2.6-5.5 3.85-0.25 0.23-0.63 0.44-0.61 0.83l11.4 7.32c0.64-4.9 0.41-9.94 0.11-14.87zm-68.61 9.59h-19.67c-2.72 4.24-6.31 8.02-10.05 11.43l4.65 8.47q0.18 0.24 0.48 0.24c0.79 0.07 5.71-1.52 7.07-1.81 2.33-0.49 5.16-0.61 7.27-1.13q0.36-0.08 0.64-0.32l9.48-16.18c0 0 0.13-0.71 0.13-0.7zm27.71 0h-19.55l9.76 17.04c5.11 0.64 10.12 1.74 15.07 3.13l5.09-8.54c-3.66-3.69-7.36-7.35-10.37-11.62zm-63.98 11.23c0.16-0.28 0.05-0.63-0.08-0.91-0.35-0.75-2.64-3.31-3.34-4.09-0.63-0.7-5.13-5.28-5.52-5.27-4.61 3.26-9.21 6.55-14.3 9.03 0.13 1.43 2.91 11.92 3.52 12.09 0.67 0.18 3.29-1.06 4.1-1.41 5.6-2.46 10.72-5.83 15.62-9.44zm100.56 11.07c0.79-2.72 1.9-5.34 2.57-8.1 0.22-0.9 1.08-3.71 0.67-4.37-4.8-2.46-9.45-5.25-13.56-8.75h-0.95c-2.05 2.1-4.25 4.09-6.13 6.35-0.48 0.58-2.67 3.07-2.41 3.59 0.17 0.35 3.21 2.52 3.8 2.94 4.91 3.47 10.37 6.24 16.01 8.34zm-65.23 11.72l10.07-0.08c1.19-4.95 2.69-9.8 4.74-14.46l-0.14-0.7-9.42-16.38c-0.26-0.18-1.31 1.71-1.48 2-2.96 4.91-5.63 10.01-8.54 14.95 2.03 4.73 3.67 9.64 4.77 14.68zm-28.32-11.96c0.37-0.41-3.44-6.69-4.2-7.4q-1.84 1.44-3.75 2.78-1.92 1.33-3.91 2.55-1.99 1.23-4.04 2.34-2.06 1.11-4.17 2.1c-1.15 0.54-3.36 1.15-4.26 1.74-0.23 0.15-0.39 0.21-0.36 0.53 0.14 1.42 3.36 5.19 3.84 6.85 0.14 0.09 0.39 0.07 0.56 0.03 0.38-0.07 5.09-3.72 6.01-4.32 4.38-2.88 9.32-5.49 14.28-7.2zm66.94-0.02c5.9 2.1 11.33 5.3 16.46 8.84 0.66 0.46 3.16 2.59 3.6 2.66 0.28 0.04 0.49 0.06 0.67-0.21 1.24-2.24 2.85-4.42 3.7-6.8-0.12-0.42-4.76-2.19-5.58-2.59-4.06-1.97-8.06-4.37-11.74-6.96-0.51-0.36-2.75-2.3-2.94-2.35-0.35-0.08-0.38 0.21-0.55 0.39-0.63 0.66-3.26 5.21-3.52 6.07-0.09 0.31-0.2 0.62-0.09 0.94zm-47.3-0.43l-13.16 2.61 3.83 13.18 13.33-2.86c0.32-0.45-0.8-3.97-1.04-4.75-0.82-2.78-1.9-5.49-2.97-8.18zm36.72 15.79l4.08-12.8c-4.17-1.78-8.9-2.37-13.4-2.99-1.54 4.23-3.3 8.46-4 12.94l13.32 2.86zm-302 11.75c-5.37-7.85-9.88-16.33-15.23-24.22h-6.84v36.68h6.72v-23.74c5.32 7.67 9.74 16 14.99 23.74h6.96c0 0 0.36-0.33 0.36-0.36v-35.96c0 0-0.33-0.36-0.36-0.36h-6.6zm47.49 12.47l-14.51-36.44c-0.17-0.27-0.44-0.22-0.71-0.25-1.32-0.16-5.18-0.16-6.5 0-0.89 0.11-0.85 0.51-1.18 1.22-4.42 11.86-9.39 23.54-13.56 35.48h7.56l3.39-8.36h14.45c1.02 2.79 1.91 5.73 3.27 8.36h7.8zm26.63-30.45v-5.87c0 0-0.33-0.36-0.36-0.36h-28.67v6.23h10.43c0 0 0.36 0.33 0.36 0.36v30.09h7.08c0 0 0.36-0.33 0.36-0.36v-30.09h10.79zm12-6.23h-7.08c-0.2 0-0.42 0.58-0.37 0.83 1.72 11.84-5.98 35.18 12.11 36.35 10.32 0.67 16.33-2.09 16.93-13.07 0.43-7.89-0.34-16.18 0-24.11h-7.08c0 0-0.36 0.33-0.36 0.36v24.69c0 0.61-0.5 2.41-0.83 3.01-2.32 4.3-10.98 3.75-12.72-0.98-0.23-0.61-0.61-2.64-0.61-3.23v-23.86zm29.26 0.36c-0.38 1.24 0.28 4.4 0 5.87 5.32 0.25 10.92-0.33 16.2 0 3.48 0.21 6.31 0.77 6.12 4.94-0.1 2.25-1.3 3.77-3.55 4.12-0.89 0.14-2.36 0.26-3.29 0.31-5.07 0.27-10.39-0.22-15.48 0v20.74c0 0 0.33 0.36 0.36 0.36h7.08v-14.98c0-0.72 4.2-0.22 4.86-0.06 1.09 0.27 1.72 0.83 2.59 1.49l9.47 13.56h8.52l-3.98-6.69c-2.29-3.66-4.47-7.19-8.25-9.49 7.16-0.73 11.25-7.42 8.68-14.19-2.12-5.58-6.57-5.75-11.68-6.07-4.7-0.29-12.25-0.78-16.81-0.25-0.28 0.03-0.73 0.06-0.83 0.37zm64.05 5.87v-5.87c0 0-0.33-0.36-0.36-0.36h-26.75v36.68h27.47c0 0 0.36-0.33 0.36-0.36v-5.87h-20.39v-9.83h18.23v-6.23h-18.23v-8.15c0 0 19.67 0 19.67-0.01zm68.33-5.01c-0.47-0.29-2.86 0.86-3.49 1.13-5.9 2.52-11.21 6.16-16.37 9.9-0.26 0.37 2.52 3.55 2.98 4.05 0.75 0.84 4.99 5.18 5.66 5.4l14.99-7.55c0.44-0.65-0.7-4.1-0.97-5.04-0.27-0.94-2.43-7.66-2.79-7.88zm58.59 12.89c5.37 1.93 10.28 4.79 15.17 7.67 3.13-2.79 6.16-5.75 8.57-9.2 0.04-0.34-0.25-0.4-0.41-0.56-2.97-2.98-10.86-7.41-14.8-9.19-0.87-0.39-3.87-1.85-4.58-1.65-1.62 4.19-3.26 8.46-3.95 12.93zm-23.05-0.45h-8.4c0.58 5.35 1 10.79 0.73 16.19-0.13 2.59-0.77 5.17-0.73 7.78h8.04c0.12 0 0.4-0.4 0.37-0.6-1.3-7.72-1.3-15.67 0-23.38zm-12.98 0.51c-4.55 0.39-9.06 1.46-13.4 2.86 0.33 2.64 0.82 5.35 0.95 8.02 0.13 2.67-0.32 5.91-0.01 8.4 0.04 0.29-0.01 0.49 0.25 0.71 0.56 0.47 5.65 1.69 6.72 1.92 0.77 0.16 5.25 1.11 5.52 0.83 1.05-7.54 1.28-15.22-0.02-22.75zm17.29-0.03c-0.59 5.04-0.97 10.14-0.73 15.24 0.04 0.91 0.62 6.99 0.84 7.32 0.38 0.56 3.5-0.18 4.26-0.32 1.13-0.22 7.58-1.76 8.11-2.2 0.62-0.52 0.01-2.14-0.01-2.87-0.11-3.4 0.19-7.16 0.49-10.56 0.07-0.76 0.67-3.29 0.37-3.73-4.3-1.46-8.79-2.48-13.33-2.88zm-35.03 4.56c-0.64-0.44-10.96 5.03-12.22 6.11 1.08 1.24 12.32 7.97 12.95 7.31 0-4.49 0.17-9-0.73-13.42zm52.07 13.42c0.36 0.36 4.72-1.97 5.44-2.36 0.94-0.51 7.53-4.47 7.51-4.96-1.1-1.09-11.72-6.63-12.23-6.11-0.63 4.45-0.83 8.93-0.72 13.43zm-150.65 17.27h-14.63c2.36 5.84 1.96 12.61 2.15 18.83 0.02 0.57 0.25 1.09 0.26 1.66 0.13 5.15-0.11 10.32-0.01 15.47-1.11-1.39-1.74-3.04-2.88-4.43-7.86-9.57-23.07-7.98-31.66-0.25-12.49 11.25-13.42 37.01-4.89 50.69 8.53 13.68 26.42 15.4 36.9 3.36l2.54-4.06v10.07h14.39c-1.99-5.14-1.6-10.76-2.17-16.17zm-135.77 24.69c-12.75-0.5-20.55 9.29-24.05 20.44l-1.62 5.7v-24.69h-14.39c0.71 1.75 1.15 3.55 1.41 5.43 0.44 3.16 0.66 7.06 0.76 10.27 0.36 10.88 0.38 23.19 0 34.07-0.11 3.06-0.35 6.76-0.76 9.79-0.27 1.95-0.67 3.84-1.41 5.67h16.79c-1.74-3.85-1.7-8.19-1.92-12.34-0.58-10.94-1.99-28.58 5.4-37.53 4.82-5.84 12.55-7.22 19.79-7.19v-9.59zm188.79 0c-12.21-0.55-20.09 8.7-23.68 19.37l-1.75 6.04v-23.98h-14.63c0.73 1.76 1.13 3.54 1.41 5.43 0.43 2.93 0.66 6.57 0.76 9.55 0.4 11.16 0.38 23.86 0 35.03-0.1 3.05-0.33 6.77-0.77 9.78-0.28 1.89-0.68 3.67-1.41 5.43h16.79c-1.76-4.28-1.71-9-1.92-13.54-0.46-9.89-1.35-23.81 3.16-32.81 4.51-9 13.04-10.77 22.03-10.71v-9.59zm56.37 66.65c-1.29-3.45-1.66-7.25-1.92-10.91-0.99-14.11 2.3-32.61-5-45.11-8.07-13.83-25.04-11.14-38.18-7.51-0.24 0.24 1.74 5.92 2.05 5.99 6.57-4.39 17.87-12.08 24.19-3.33 3.67 5.08 3.93 12.79 4.21 18.81 0.34 7.46 0.71 16.31 0.26 23.74-0.7 11.45-12.18 19.28-23.16 18.57-16.95-1.1-8.11-20.17-3.61-29.01 2.47-4.84 11.88-19.5 11.85-23.82-0.02-4.06-2.71-7.32-6.93-7.1 0.12 1.82-0.77 3.67-1.55 5.28-6.23 12.91-26.56 35.46-14.4 49.87 9.02 10.68 27.37 7.11 35.51-2.88 0.7-0.86 1.22-2.02 1.78-2.73 0.22-0.28 0.45-0.12 0.74-0.15v10.31h14.15zm25.42-66.41h-14.39c1.87 5.35 1.71 11.09 1.91 16.67 0.49 13.38 1.12 29.94-0.47 43.14-0.27 2.25-0.72 4.45-1.44 6.6h16.55c-1.8-5.04-1.7-10.44-1.91-15.71-0.02-0.57-0.24-1.09-0.26-1.66-0.17-5.66 0.14-11.36 0.02-17.03l0.34-0.62c2.66-2.03 4.83-4.97 7.33-7.06 1.64-1.37 1.91-1.51 4.17-1.29 7.4 0.73 10.36 7.22 12.45 13.45 3.2 9.54 5.14 19.87 8.14 29.51l0.31 0.41h11.87c-2.48-8.48-4.44-17.18-7.13-25.6-2.21-6.91-5.14-11.65-11.57-15.29-4.4-2.49-9.33-4.07-14.4-4.43 7.85-7.85 18.46-12.47 29.75-11.51v-9.59c-6.44-0.07-12.47 3.13-17.59 6.76-8.65 6.13-15.78 14.95-23.67 22.01v-28.77zm97.16 2.64c-9.47-2.22-19.39-3.52-29.07-1.84-9.68 1.68-17.6 6.13-16.76 16.84 1.12 14.3 27.95 19.22 36.23 29.49 5.01 6.21 2.5 17.23-5.98 18.95-9.33 1.89-20.52-4.28-28.08-9.24l-1.2 9.58c12.49 1.14 30.49 4.69 41.47-3.01 5.76-4.04 7.64-13.99 4.93-20.23-4.67-10.75-24.83-16.14-33.81-23.75-8.98-7.61-2.89-18.19 8.4-17.51 5.33 0.32 10.8 3.24 15.06 6.29 1.61 1.16 3.09 2.74 4.6 3.8 0.2 0.14 0.24 0.33 0.6 0.24l3.6-9.59zm-346.15-1.44h-14.39c1.31 3.52 1.67 7.39 1.93 11.14 0.76 11.24-0.43 22.89 0.22 34.07 1.42 24.44 30.48 29.3 42.18 9.29l2.93-6.31v17.02h14.39c-1.89-5.68-1.73-11.7-1.92-17.62-0.02-0.46-0.23-0.92-0.25-1.43-0.41-15.36 0.33-30.8 0-46.16h-14.39c0.77 1.89 1.14 3.88 1.41 5.9 1.27 9.66 1.35 24.24 0.76 34.02-1.42 23.7-30.95 38.59-32.88 6.95v-46.88z"/>
		<path class="s1" d="m-172.63 167.59v46.88c1.92 31.64 31.45 16.75 32.87-6.95 0.59-9.79 0.51-24.37-0.76-34.02-0.27-2.02-0.64-4.02-1.41-5.9h14.39c0.32 15.37-0.42 30.8 0 46.16 0.01 0.51 0.23 0.97 0.25 1.43 0.2 5.92 0.03 11.94 1.92 17.62h-14.39v-17.02l-2.93 6.31c-11.7 20.01-40.76 15.14-42.18-9.29-0.65-11.17 0.54-22.82-0.22-34.07-0.25-3.75-0.62-7.62-1.93-11.14h14.39zm-21.59-1.44v9.59c-7.24-0.03-14.97 1.35-19.79 7.19-7.39 8.95-5.97 26.59-5.4 37.53 0.22 4.15 0.18 8.49 1.92 12.34h-16.79c0.74-1.83 1.14-3.72 1.41-5.67 0.42-3.03 0.66-6.72 0.76-9.79 0.38-10.88 0.36-23.18 0-34.07-0.11-3.21-0.32-7.1-0.76-10.27-0.26-1.88-0.7-3.68-1.41-5.43h14.39v24.69l1.62-5.7c3.5-11.14 11.3-20.94 24.05-20.44zm270.58 0.24v28.77c7.89-7.06 15.02-15.88 23.67-22.01 5.11-3.63 11.15-6.82 17.59-6.76v9.59c-11.29-0.96-21.89 3.65-29.75 11.51 5.06 0.36 10 1.94 14.4 4.43 6.43 3.64 9.36 8.37 11.57 15.29 2.69 8.41 4.66 17.12 7.13 25.6h-11.87l-0.31-0.41c-3.01-9.64-4.94-19.97-8.14-29.51-2.09-6.23-5.05-12.72-12.45-13.45-2.27-0.22-2.54-0.08-4.17 1.29-2.5 2.09-4.67 5.04-7.33 7.06l-0.34 0.62c0.13 5.67-0.19 11.36-0.02 17.03 0.02 0.57 0.24 1.09 0.26 1.66 0.21 5.28 0.11 10.67 1.91 15.71h-16.55c0.72-2.15 1.16-4.34 1.44-6.6 1.59-13.2 0.96-29.77 0.47-43.14-0.2-5.59-0.04-11.33-1.91-16.67h14.39zm-25.42 66.41h-14.15v-10.31c-0.28 0.03-0.51-0.13-0.74 0.15-0.56 0.71-1.08 1.87-1.78 2.73-8.14 9.99-26.49 13.56-35.51 2.88-12.16-14.4 8.18-36.96 14.4-49.87 0.78-1.61 1.67-3.46 1.55-5.28 4.22-0.22 6.91 3.04 6.93 7.1 0.02 4.33-9.39 18.98-11.85 23.82-4.5 8.84-13.34 27.91 3.61 29.01 10.98 0.71 22.46-7.12 23.16-18.57 0.45-7.43 0.08-16.28-0.26-23.74-0.27-6.02-0.54-13.73-4.21-18.81-6.32-8.75-17.62-1.06-24.19 3.33-0.31-0.07-2.3-5.75-2.05-5.99 13.14-3.63 30.11-6.32 38.18 7.51 7.3 12.5 4.01 31 5 45.11 0.26 3.66 0.63 7.46 1.92 10.91zm194.3 0h-16.79c1.46-4.3 1.5-8.81 1.93-13.3-0.57-11.56 0.73-23.79 0-35.26-0.48-7.6-3.82-12.99-12.14-12.59-11.55 0.56-17.96 13.39-18.59 23.62-0.56 9.03-0.53 23.24 0.76 32.1 0.28 1.89 0.68 3.67 1.41 5.43h-16.79c1.93-4.65 1.6-9.81 2.17-14.74-0.57-20.44 0.72-41.25 0-61.64-0.1-2.97-0.34-6.61-0.77-9.54-0.28-1.89-0.68-3.67-1.41-5.43h14.63v45.07l1.88-4.96c9.09-20.59 39.57-21.37 41.3 3.64 0.97 14-1.39 29.46 1.03 43.32 0.23 1.33 0.49 2.97 1.37 4.03v0.24zm-71.72-63.77l-3.6 9.59c-0.36 0.1-0.4-0.09-0.6-0.24-1.51-1.05-2.98-2.64-4.6-3.8-4.26-3.05-9.73-5.97-15.06-6.29-11.29-0.68-17.8 9.53-8.4 17.51 9.4 7.98 29.14 13 33.81 23.75 2.71 6.24 0.83 16.19-4.93 20.23-10.99 7.7-28.98 4.16-41.47 3.01l1.2-9.58c7.56 4.96 18.74 11.13 28.08 9.24 8.48-1.72 10.99-12.74 5.98-18.95-8.28-10.27-35.1-15.19-36.23-29.49-0.84-10.7 7.5-15.23 16.76-16.84 9.26-1.61 19.6-0.38 29.07 1.84zm-231.97-27.57v75.17c0.56 5.41 0.17 11.03 2.16 16.17h-14.39v-10.07l-2.54 4.06c-10.49 12.04-28.55 10.04-36.9-3.36-8.35-13.4-7.6-39.45 4.89-50.69 8.59-7.73 23.8-9.32 31.66 0.25 1.14 1.39 1.77 3.04 2.88 4.43-0.1-5.15 0.14-10.32 0.01-15.47-0.01-0.57-0.24-1.09-0.26-1.66-0.19-6.22 0.21-12.99-2.15-18.83h14.63zm-26.91 28.6c-21.02 1.11-22.05 43.32-10.74 55.91 8.63 9.6 22.34 3.95 25.07-7.53 0.11-10.99 1.03-22.99 0.36-33.95-0.5-8.16-6.02-14.88-14.69-14.43zm79.93-3.91v9.59c-8.98-0.05-17.72 2.15-22.03 10.71-4.52 8.99-3.62 22.91-3.16 32.81 0.21 4.55 0.16 9.26 1.92 13.54h-16.79c0.73-1.76 1.13-3.54 1.41-5.43 0.44-3.01 0.66-6.73 0.77-9.78 0.38-11.17 0.39-23.86 0-35.03-0.11-2.97-0.34-6.62-0.76-9.55-0.28-1.89-0.68-3.67-1.41-5.43h14.63v23.98l1.75-6.04c3.59-10.67 11.46-19.92 23.68-19.37zm95.59-99.02c3.01 4.28 6.71 7.93 10.37 11.62l-5.09 8.54c-4.95-1.38-9.96-2.48-15.07-3.13l-9.76-17.04c0 0 19.55 0 19.55 0.01zm-28.65 34.02c-1.1-5.04-2.74-9.95-4.77-14.68 2.91-4.94 5.58-10.04 8.54-14.95 0.17-0.28 1.22-2.17 1.48-2l9.42 16.38 0.14 0.7c-2.04 4.66-3.55 9.52-4.74 14.46l-10.07 0.08zm4.78-40.97l-9.55-16.86c2.04-4.76 3.7-9.69 4.77-14.77l9.69-0.03 0.55 0.41c0.84 5.04 2.86 9.75 4.56 14.52l-9.35 16.32-0.68 0.4zm-3.84 6.95l-0.13 0.71-9.48 16.18q-0.27 0.24-0.64 0.32c-2.11 0.52-4.94 0.63-7.27 1.13-1.36 0.29-6.28 1.88-7.07 1.81-0.2-0.02-0.36-0.07-0.48-0.24l-4.65-8.47c3.73-3.41 7.33-7.2 10.05-11.43h19.67zm0-4.55h-19.55c-2.93-4.22-6.59-7.79-10.17-11.44l4.56-8.31 0.56-0.38c4.88 1.59 9.93 2.52 15.01 3.23 3.17 5.64 6.7 11.13 9.59 16.9zm8.16 0l9.63-16.98c5.24-0.52 10.35-1.76 15.4-3.18 0.28 1.4 4.87 8 4.68 8.72-0.11 0.43-3.97 3.98-4.65 4.72-1.94 2.14-3.69 4.47-5.51 6.72zm-63.89-22.04c3.42 1.13 6.72 2.73 9.84 4.49 1.35 0.77 9.18 5.67 9.56 6.52 0.36 0.8-1.9 3.19-2.53 3.94-1.89 2.25-4.03 4.31-6.16 6.33l-14.44-9.25c-0.19-0.6 1.28-5.74 1.59-6.74 0.25-0.82 1.6-5.16 2.14-5.31zm120.01-0.01c0.63 1.73 3.99 11.36 3.33 12.42-5.16 2.24-9.67 5.63-14.2 8.89-2.06-1.69-4.06-3.71-5.79-5.73-0.75-0.88-2.53-2.83-3-3.71-0.12-0.23-0.33-0.34-0.22-0.69 0.27-0.88 9.21-6.38 10.62-7.14 1.13-0.61 8.73-4.41 9.26-4.04zm-51.57 65.68c4.54 0.39 9.03 1.41 13.33 2.87 0.3 0.44-0.3 2.97-0.37 3.73-0.31 3.4-0.6 7.16-0.49 10.56 0.02 0.73 0.63 2.35 0.01 2.87-0.53 0.44-6.98 1.99-8.11 2.2-0.76 0.15-3.88 0.88-4.26 0.32-0.22-0.32-0.79-6.41-0.84-7.32-0.24-5.09 0.15-10.2 0.73-15.23zm-17.27-105.49c1.07 7.65 1.2 15.38 0 23.02l-13.43-2.88c1-5.69 1.01-11.46 0.99-17.23 4.04-1.36 8.2-2.39 12.44-2.91zm-22.58 92.57c0.35 0.22 2.51 6.92 2.79 7.88 0.28 0.96 1.41 4.39 0.97 5.04l-14.99 7.55c-0.67-0.22-4.9-4.57-5.66-5.4-0.45-0.5-3.23-3.68-2.98-4.05 5.16-3.74 10.47-7.38 16.37-9.9 0.63-0.27 3.02-1.42 3.49-1.13zm73.37-77.2c0.52-0.08 1.1 0.48 1.51 0.81 1.62 1.32 6.17 6.01 7.16 7.71 0.16 0.27 0.33 0.46 0.16 0.8-0.17 0.34-3.08 2.42-3.66 2.84-1.91 1.37-4.1 2.75-6.15 3.92-1.19 0.68-9.09 4.83-9.76 4.41-1.09-2.29-1.97-4.72-2.7-7.15-0.27-0.9-1.58-5.19-1.27-5.7 0.23-0.38 6.9-3.11 8.05-3.71 2.28-1.19 4.44-2.62 6.66-3.93zm-14.78 90.09c0.69-4.47 2.33-8.74 3.95-12.93 0.71-0.19 3.71 1.26 4.58 1.65 3.94 1.77 11.83 6.21 14.8 9.19 0.16 0.16 0.45 0.22 0.41 0.56-2.4 3.45-5.44 6.41-8.57 9.2-4.89-2.88-9.8-5.74-15.17-7.67zm-36.03 0.06c1.3 7.53 1.07 15.21 0.02 22.75-0.27 0.27-4.75-0.67-5.52-0.83-1.07-0.23-6.16-1.45-6.72-1.92-0.26-0.22-0.21-0.42-0.25-0.71-0.31-2.5 0.14-5.76 0.01-8.4-0.13-2.64-0.62-5.38-0.95-8.02 4.34-1.4 8.86-2.48 13.4-2.86zm-18.72-82.72c0.62 0.72-3.09 11.7-3.95 13.18-7.17-2.66-13.87-6.57-19.76-11.43-0.13-0.62 7.32-8.65 8.74-9.2 4.86 2.72 9.65 5.69 14.97 7.45zm87.59 65.91c-5.63-2.1-11.09-4.87-16-8.34-0.59-0.42-3.63-2.58-3.8-2.94-0.26-0.53 1.93-3.02 2.41-3.59 1.88-2.26 4.08-4.25 6.13-6.35h0.95c4.11 3.5 8.77 6.29 13.56 8.75 0.41 0.66-0.45 3.47-0.67 4.37-0.68 2.76-1.78 5.38-2.58 8.1zm-38.89-85.81c-0.52 5.75 0.11 11.51 0.72 17.22-4.39 1.13-8.84 2.59-13.41 2.66-0.97-7.47-1.07-15.09 0.11-22.55 0.19-0.29 0.39-0.2 0.66-0.18 3.93 0.31 8.13 1.86 11.92 2.85zm-61.67 74.74c-4.9 3.61-10.03 6.98-15.62 9.44-0.8 0.35-3.43 1.6-4.1 1.41-0.61-0.17-3.39-10.66-3.52-12.09 5.09-2.48 9.69-5.77 14.3-9.03 0.38 0 4.89 4.58 5.52 5.27 0.7 0.78 2.99 3.34 3.34 4.09 0.13 0.28 0.25 0.62 0.08 0.91zm63.37 26.17l-13.32-2.86c0.69-4.48 2.46-8.7 4-12.94 4.51 0.62 9.24 1.22 13.4 2.99l-4.08 12.8zm-32.62-76.48c0.48 0.48-3.51 12.46-4.07 12.83-1.17 0.79-11.46-2.14-13.44-2.53 1.64-4.29 3.33-8.62 4.08-13.19l13.43 2.88zm-27.31 26.89c0.3-0.17 0.57 0.03 0.82 0.19 0.75 0.5 2.61 2.58 3.35 3.36 0.68 0.73 5.16 5.91 5.16 6.35-2.49 3.69-5.61 7.11-9 9.96l-9-9.96c2.78-3.34 6.33-6.15 8.68-9.92zm23.21 33.8c1.07 2.69 2.15 5.4 2.97 8.18 0.23 0.79 1.35 4.3 1.04 4.75l-13.33 2.86-3.83-13.18 13.16-2.61zm36.73-63.57l4.08 13.19c-4.41 1.04-8.84 2.47-13.39 2.6-1.72-4.17-3.22-8.47-4.12-12.9 4.56-0.51 9.05-1.56 13.43-2.88zm13.91 49.87c-0.35 0.1-0.4-0.09-0.6-0.23-0.82-0.56-2.58-2.53-3.36-3.36-0.73-0.78-5.1-5.82-5.16-6.37-0.09-0.82 2.99-4.34 3.72-5.15 0.56-0.63 4.92-5.12 5.27-5.03l8.98 9.98c0.09 0.49-1.17 1.16-1.55 1.52-2.17 2.09-4.55 4.86-6.44 7.22-0.33 0.41-0.75 0.88-0.87 1.41zm-70.28 14.15c-4.96 1.7-9.9 4.31-14.28 7.19-0.92 0.6-5.62 4.25-6.01 4.32-0.17 0.03-0.42 0.06-0.56-0.03-0.47-1.65-3.7-5.42-3.84-6.85-0.03-0.32 0.13-0.38 0.36-0.53 0.9-0.59 3.11-1.2 4.26-1.74q2.11-0.99 4.17-2.1 2.05-1.11 4.04-2.34 1.99-1.22 3.91-2.56 1.91-1.33 3.75-2.77c0.75 0.72 4.56 7 4.2 7.41zm-3.87-41.27c-0.22 0.13-0.47 0-0.69-0.1-1.06-0.5-3.18-2.48-4.39-3.28-4.9-3.26-10.21-6.15-15.77-8.1-0.25-0.34 3.68-7.07 4.07-7.32 0.32-0.21 0.38-0.02 0.62 0.11 1.22 0.66 2.96 2.31 4.25 3.19 4.9 3.34 10.14 6.15 15.66 8.33 0.23 0.31-0.76 2-0.97 2.41-0.31 0.6-2.55 4.62-2.79 4.76zm70.81 41.25c-0.1-0.32 0-0.63 0.09-0.94 0.26-0.86 2.89-5.41 3.52-6.07 0.17-0.18 0.2-0.47 0.55-0.39 0.18 0.04 2.43 1.99 2.94 2.35 3.69 2.59 7.69 4.99 11.74 6.96 0.83 0.4 5.46 2.17 5.58 2.59-0.84 2.38-2.46 4.55-3.7 6.8-0.18 0.26-0.38 0.25-0.67 0.21-0.43-0.07-2.94-2.2-3.6-2.66-5.13-3.54-10.57-6.74-16.46-8.84zm20.58-60.13c0.36 0.21 4.1 7.05 3.86 7.39-7.24 2.62-13.94 6.6-20.01 11.3-0.21 0.18-0.35 0.26-0.61 0.12-0.36-0.19-4.32-6.76-4.08-7.09q2.73-1.03 5.38-2.29 2.64-1.25 5.17-2.71 2.53-1.46 4.94-3.12 2.41-1.66 4.67-3.51c0.2-0.12 0.48-0.21 0.69-0.1zm-49.86-28.8l-0.97 9.22c0 3.2 0.01 6.41 0.25 9.6 0.1 1.3 0.71 3.49 0.67 4.62 0 0.22-0.16 0.54-0.31 0.54h-8.04c0.89-7.95 1.22-16.07-0.24-23.98zm0 105.49q-0.48 2.9-0.73 5.82-0.24 2.93-0.24 5.87 0 2.94 0.24 5.87 0.25 2.92 0.73 5.82c0.03 0.2-0.25 0.6-0.37 0.6h-8.04c-0.04-2.61 0.6-5.19 0.73-7.78 0.27-5.41-0.15-10.84-0.73-16.19h8.4zm34.3-92.55l-12.23 6q-0.23-1.7-0.39-3.4-0.15-1.71-0.24-3.42-0.09-1.71-0.12-3.42-0.02-1.71 0.03-3.42c0.47-0.53 9.85 5.08 10.87 5.8 0.4 0.28 2.34 1.5 2.08 1.87zm-91.67 51.35c0.17 0.43-0.05 0.65-0.32 0.93-1.08 1.15-4.74 3.39-6.24 4.32-0.8 0.49-3.27 2.11-3.96 2.29-0.32 0.08-0.62 0.24-0.85-0.13-0.1-0.15-0.33-2.96-0.36-3.48-0.17-3.44 0.12-6.89 0.25-10.32 0-0.21 0.19-0.56 0.37-0.6 0.9-0.18 9.74 6.07 11.11 6.99zm78.72 59.66c-0.11-4.5 0.09-8.98 0.72-13.43 0.5-0.51 11.12 5.03 12.23 6.11 0.02 0.48-6.57 4.45-7.51 4.96-0.72 0.39-5.07 2.71-5.44 2.36zm-51.34-118.67c0 4.57 0.18 9.16-0.72 13.66-1.52-0.34-11.82-5.43-11.99-6.12-0.1-0.4 1.26-1.25 1.6-1.51 0.99-0.74 10.63-6.57 11.11-6.04zm-0.73 105.25c0.9 4.42 0.74 8.93 0.73 13.42-0.63 0.66-11.87-6.07-12.95-7.31 1.26-1.08 11.58-6.54 12.22-6.11zm90.93-53.23c0.29 4.93 0.52 9.97-0.12 14.87l-11.4-7.32c-0.01-0.39 0.36-0.6 0.61-0.83 1.38-1.25 3.88-2.83 5.5-3.85 0.57-0.36 5.16-3.14 5.41-2.87z"/>
		<path class="s0" d="m-85.36 170.06c8.67-0.46 14.19 6.26 14.69 14.43 0.67 10.96-0.25 22.96-0.36 33.95-2.73 11.49-16.45 17.13-25.07 7.53-11.31-12.58-10.28-54.8 10.74-55.91z"/>
		<path class="s2" d="m-212.45 116.28v-24.22h6.6c0 0 0.36 0.33 0.36 0.36v35.96c0 0-0.33 0.36-0.36 0.36h-6.96c-5.26-7.74-9.67-16.06-14.99-23.74v23.74h-6.72v-36.68h6.84c5.36 7.89 9.86 16.36 15.23 24.22zm115.38-23.85c0.1-0.31 0.55-0.34 0.83-0.37 4.56-0.53 12.11-0.05 16.81 0.25 5.1 0.32 9.56 0.49 11.68 6.07 2.57 6.77-1.52 13.46-8.68 14.19 3.78 2.3 5.96 5.84 8.25 9.49l3.98 6.69h-8.52l-9.47-13.56c-0.87-0.66-1.5-1.22-2.59-1.49-0.65-0.16-4.86-0.66-4.86 0.06v14.98h-7.08c0 0-0.36-0.33-0.36-0.36v-20.74c5.09-0.21 10.41 0.28 15.48 0 0.93-0.05 2.39-0.17 3.29-0.31 2.25-0.35 3.45-1.88 3.55-4.12 0.19-4.16-2.64-4.73-6.12-4.94-5.28-0.32-10.89 0.26-16.2 0 0.28-1.47-0.38-4.64 0-5.87zm64.05 5.87h-19.67v8.15h18.23v6.23h-18.23v9.83h20.39v5.87c0 0-0.33 0.36-0.36 0.36h-27.47v-36.68h26.75c0 0 0.36 0.33 0.36 0.36v5.87zm-131.94 30.45h-7.8c-1.35-2.63-2.24-5.57-3.27-8.36h-14.45l-3.39 8.36h-7.56c4.17-11.94 9.14-23.62 13.56-35.48 0.33-0.71 0.29-1.11 1.18-1.22 1.32-0.16 5.19-0.16 6.5 0 0.26 0.03 0.53-0.02 0.71 0.25l14.51 36.44zm-13.67-14.63l-4.92-13.19-4.68 13.19zm52.3-22.05v23.86c0 0.59 0.38 2.62 0.61 3.23 1.74 4.73 10.4 5.27 12.72 0.98 0.33-0.6 0.83-2.4 0.83-3.01v-24.69c0 0 0.33-0.36 0.36-0.36h7.08c-0.33 7.93 0.44 16.22 0 24.11-0.6 10.98-6.61 13.73-16.93 13.07-18.1-1.17-10.4-24.5-12.11-36.35-0.05-0.25 0.17-0.83 0.37-0.83h7.08zm-12 6.23h-10.79v30.09c0 0-0.33 0.36-0.36 0.36h-7.08v-30.09c0 0-0.33-0.36-0.36-0.36h-10.43v-6.23h28.67c0 0 0.36 0.33 0.36 0.36v5.87z"/>
		<path class="s0" d="m-178.63 114.12h-9.59l4.67-13.19z"/>
	</g>
</svg>